<mxfile host="app.diagrams.net" modified="2023-06-28T06:00:49.081Z" agent="Mozilla/5.0 (Windows NT 10.0; Win64; x64) AppleWebKit/537.36 (KHTML, like Gecko) Chrome/114.0.0.0 Safari/537.36" etag="DZ4Rlnp6yceObhm4M1EI" version="21.5.1" type="github">
  <diagram name="Page-1" id="87ZkGZSKprPE7Jpp-hti">
    <mxGraphModel dx="763" dy="515" grid="1" gridSize="10" guides="1" tooltips="1" connect="1" arrows="1" fold="1" page="1" pageScale="1" pageWidth="827" pageHeight="1169" math="0" shadow="0">
      <root>
        <mxCell id="0" />
        <mxCell id="1" parent="0" />
        <mxCell id="6q_l_qIWVP6Lyo2Kyk2n-1" value="" style="rounded=0;whiteSpace=wrap;html=1;" parent="1" vertex="1">
          <mxGeometry x="29" y="70" width="770" height="580" as="geometry" />
        </mxCell>
        <mxCell id="6q_l_qIWVP6Lyo2Kyk2n-2" value="Product Page" style="rounded=1;whiteSpace=wrap;html=1;" parent="1" vertex="1">
          <mxGeometry x="274" y="10" width="279" height="30" as="geometry" />
        </mxCell>
        <mxCell id="6q_l_qIWVP6Lyo2Kyk2n-4" value="Cart" style="rounded=1;whiteSpace=wrap;html=1;" parent="1" vertex="1">
          <mxGeometry x="700" y="85" width="70" height="30" as="geometry" />
        </mxCell>
        <mxCell id="6q_l_qIWVP6Lyo2Kyk2n-5" value="SignUp/SignIn" style="rounded=1;whiteSpace=wrap;html=1;" parent="1" vertex="1">
          <mxGeometry x="560" y="85" width="110" height="30" as="geometry" />
        </mxCell>
        <mxCell id="6q_l_qIWVP6Lyo2Kyk2n-6" value="hardcode Image" style="rounded=0;whiteSpace=wrap;html=1;" parent="1" vertex="1">
          <mxGeometry x="29" y="130" width="771" height="20" as="geometry" />
        </mxCell>
        <mxCell id="6q_l_qIWVP6Lyo2Kyk2n-7" value="Ecommerce Name" style="rounded=0;whiteSpace=wrap;html=1;" parent="1" vertex="1">
          <mxGeometry x="30" y="70" width="230" height="60" as="geometry" />
        </mxCell>
        <mxCell id="fMObdR9FiFRtV0M5q8pQ-2" value="Search" style="rounded=1;whiteSpace=wrap;html=1;" vertex="1" parent="1">
          <mxGeometry x="280" y="85" width="250" height="30" as="geometry" />
        </mxCell>
        <mxCell id="fMObdR9FiFRtV0M5q8pQ-5" value="" style="edgeStyle=orthogonalEdgeStyle;rounded=0;orthogonalLoop=1;jettySize=auto;html=1;" edge="1" parent="1">
          <mxGeometry relative="1" as="geometry">
            <mxPoint x="210" y="200" as="sourcePoint" />
            <mxPoint x="220" y="200" as="targetPoint" />
          </mxGeometry>
        </mxCell>
        <mxCell id="fMObdR9FiFRtV0M5q8pQ-9" value="" style="edgeStyle=orthogonalEdgeStyle;rounded=0;orthogonalLoop=1;jettySize=auto;html=1;" edge="1" parent="1" source="fMObdR9FiFRtV0M5q8pQ-6" target="fMObdR9FiFRtV0M5q8pQ-8">
          <mxGeometry relative="1" as="geometry" />
        </mxCell>
        <mxCell id="fMObdR9FiFRtV0M5q8pQ-11" value="" style="edgeStyle=orthogonalEdgeStyle;rounded=0;orthogonalLoop=1;jettySize=auto;html=1;" edge="1" parent="1" source="fMObdR9FiFRtV0M5q8pQ-6" target="fMObdR9FiFRtV0M5q8pQ-10">
          <mxGeometry relative="1" as="geometry" />
        </mxCell>
        <mxCell id="fMObdR9FiFRtV0M5q8pQ-6" value="" style="rounded=1;whiteSpace=wrap;html=1;" vertex="1" parent="1">
          <mxGeometry x="420" y="160" width="190" height="80" as="geometry" />
        </mxCell>
        <mxCell id="fMObdR9FiFRtV0M5q8pQ-8" value="" style="rounded=1;whiteSpace=wrap;html=1;" vertex="1" parent="1">
          <mxGeometry x="620" y="160" width="166" height="80" as="geometry" />
        </mxCell>
        <mxCell id="fMObdR9FiFRtV0M5q8pQ-13" value="" style="edgeStyle=orthogonalEdgeStyle;rounded=0;orthogonalLoop=1;jettySize=auto;html=1;" edge="1" parent="1" source="fMObdR9FiFRtV0M5q8pQ-10" target="fMObdR9FiFRtV0M5q8pQ-12">
          <mxGeometry relative="1" as="geometry" />
        </mxCell>
        <mxCell id="fMObdR9FiFRtV0M5q8pQ-10" value="" style="rounded=1;whiteSpace=wrap;html=1;" vertex="1" parent="1">
          <mxGeometry x="230" y="160" width="180" height="80" as="geometry" />
        </mxCell>
        <mxCell id="fMObdR9FiFRtV0M5q8pQ-12" value="" style="rounded=1;whiteSpace=wrap;html=1;" vertex="1" parent="1">
          <mxGeometry x="40" y="160" width="180" height="80" as="geometry" />
        </mxCell>
        <mxCell id="fMObdR9FiFRtV0M5q8pQ-14" value="" style="sketch=0;outlineConnect=0;fontColor=#232F3E;gradientColor=none;fillColor=#D45B07;strokeColor=none;dashed=0;verticalLabelPosition=bottom;verticalAlign=top;align=center;html=1;fontSize=12;fontStyle=0;aspect=fixed;pointerEvents=1;shape=mxgraph.aws4.container_registry_image;" vertex="1" parent="1">
          <mxGeometry x="90" y="165" width="70" height="70" as="geometry" />
        </mxCell>
        <mxCell id="fMObdR9FiFRtV0M5q8pQ-16" value="" style="sketch=0;outlineConnect=0;fontColor=#232F3E;gradientColor=none;fillColor=#D45B07;strokeColor=none;dashed=0;verticalLabelPosition=bottom;verticalAlign=top;align=center;html=1;fontSize=12;fontStyle=0;aspect=fixed;pointerEvents=1;shape=mxgraph.aws4.container_registry_image;" vertex="1" parent="1">
          <mxGeometry x="670" y="165" width="70" height="70" as="geometry" />
        </mxCell>
        <mxCell id="fMObdR9FiFRtV0M5q8pQ-17" value="" style="sketch=0;outlineConnect=0;fontColor=#232F3E;gradientColor=none;fillColor=#D45B07;strokeColor=none;dashed=0;verticalLabelPosition=bottom;verticalAlign=top;align=center;html=1;fontSize=12;fontStyle=0;aspect=fixed;pointerEvents=1;shape=mxgraph.aws4.container_registry_image;" vertex="1" parent="1">
          <mxGeometry x="480" y="165" width="70" height="70" as="geometry" />
        </mxCell>
        <mxCell id="fMObdR9FiFRtV0M5q8pQ-18" value="" style="sketch=0;outlineConnect=0;fontColor=#232F3E;gradientColor=none;fillColor=#D45B07;strokeColor=none;dashed=0;verticalLabelPosition=bottom;verticalAlign=top;align=center;html=1;fontSize=12;fontStyle=0;aspect=fixed;pointerEvents=1;shape=mxgraph.aws4.container_registry_image;" vertex="1" parent="1">
          <mxGeometry x="285" y="165" width="70" height="70" as="geometry" />
        </mxCell>
        <mxCell id="fMObdR9FiFRtV0M5q8pQ-21" value="" style="endArrow=none;html=1;rounded=0;entryX=0.988;entryY=0.471;entryDx=0;entryDy=0;entryPerimeter=0;exitX=0.001;exitY=0.471;exitDx=0;exitDy=0;exitPerimeter=0;" edge="1" parent="1">
          <mxGeometry width="50" height="50" relative="1" as="geometry">
            <mxPoint x="32.999999999999986" y="250.00000000000003" as="sourcePoint" />
            <mxPoint x="792.99" y="250.00000000000003" as="targetPoint" />
          </mxGeometry>
        </mxCell>
        <mxCell id="fMObdR9FiFRtV0M5q8pQ-22" value="" style="whiteSpace=wrap;html=1;aspect=fixed;" vertex="1" parent="1">
          <mxGeometry x="50" y="280" width="110" height="110" as="geometry" />
        </mxCell>
        <mxCell id="fMObdR9FiFRtV0M5q8pQ-23" value="Product Name" style="rounded=1;whiteSpace=wrap;html=1;" vertex="1" parent="1">
          <mxGeometry x="60" y="350" width="90" height="20" as="geometry" />
        </mxCell>
        <mxCell id="fMObdR9FiFRtV0M5q8pQ-24" value="" style="sketch=0;outlineConnect=0;fontColor=#232F3E;gradientColor=none;fillColor=#D45B07;strokeColor=none;dashed=0;verticalLabelPosition=bottom;verticalAlign=top;align=center;html=1;fontSize=12;fontStyle=0;aspect=fixed;pointerEvents=1;shape=mxgraph.aws4.container_registry_image;" vertex="1" parent="1">
          <mxGeometry x="80" y="290" width="50" height="50" as="geometry" />
        </mxCell>
        <mxCell id="fMObdR9FiFRtV0M5q8pQ-25" value="" style="whiteSpace=wrap;html=1;aspect=fixed;" vertex="1" parent="1">
          <mxGeometry x="260" y="280" width="110" height="110" as="geometry" />
        </mxCell>
        <mxCell id="fMObdR9FiFRtV0M5q8pQ-26" value="Product Name" style="rounded=1;whiteSpace=wrap;html=1;" vertex="1" parent="1">
          <mxGeometry x="270" y="350" width="90" height="20" as="geometry" />
        </mxCell>
        <mxCell id="fMObdR9FiFRtV0M5q8pQ-27" value="" style="sketch=0;outlineConnect=0;fontColor=#232F3E;gradientColor=none;fillColor=#D45B07;strokeColor=none;dashed=0;verticalLabelPosition=bottom;verticalAlign=top;align=center;html=1;fontSize=12;fontStyle=0;aspect=fixed;pointerEvents=1;shape=mxgraph.aws4.container_registry_image;" vertex="1" parent="1">
          <mxGeometry x="290" y="290" width="50" height="50" as="geometry" />
        </mxCell>
        <mxCell id="fMObdR9FiFRtV0M5q8pQ-28" value="" style="whiteSpace=wrap;html=1;aspect=fixed;" vertex="1" parent="1">
          <mxGeometry x="470" y="280" width="110" height="110" as="geometry" />
        </mxCell>
        <mxCell id="fMObdR9FiFRtV0M5q8pQ-29" value="Product Name" style="rounded=1;whiteSpace=wrap;html=1;" vertex="1" parent="1">
          <mxGeometry x="480" y="350" width="90" height="20" as="geometry" />
        </mxCell>
        <mxCell id="fMObdR9FiFRtV0M5q8pQ-31" value="" style="whiteSpace=wrap;html=1;aspect=fixed;" vertex="1" parent="1">
          <mxGeometry x="665" y="280" width="110" height="110" as="geometry" />
        </mxCell>
        <mxCell id="fMObdR9FiFRtV0M5q8pQ-32" value="Product Name" style="rounded=1;whiteSpace=wrap;html=1;" vertex="1" parent="1">
          <mxGeometry x="675" y="350" width="90" height="20" as="geometry" />
        </mxCell>
        <mxCell id="fMObdR9FiFRtV0M5q8pQ-33" value="" style="sketch=0;outlineConnect=0;fontColor=#232F3E;gradientColor=none;fillColor=#D45B07;strokeColor=none;dashed=0;verticalLabelPosition=bottom;verticalAlign=top;align=center;html=1;fontSize=12;fontStyle=0;aspect=fixed;pointerEvents=1;shape=mxgraph.aws4.container_registry_image;" vertex="1" parent="1">
          <mxGeometry x="695" y="290" width="50" height="50" as="geometry" />
        </mxCell>
        <mxCell id="fMObdR9FiFRtV0M5q8pQ-34" value="" style="sketch=0;outlineConnect=0;fontColor=#232F3E;gradientColor=none;fillColor=#D45B07;strokeColor=none;dashed=0;verticalLabelPosition=bottom;verticalAlign=top;align=center;html=1;fontSize=12;fontStyle=0;aspect=fixed;pointerEvents=1;shape=mxgraph.aws4.container_registry_image;" vertex="1" parent="1">
          <mxGeometry x="500" y="290" width="50" height="50" as="geometry" />
        </mxCell>
        <mxCell id="fMObdR9FiFRtV0M5q8pQ-37" value="When a user clicks on a product layout, a product details page or modal will open, displaying the relevant information." style="rounded=1;whiteSpace=wrap;html=1;" vertex="1" parent="1">
          <mxGeometry x="284" y="422" width="260" height="60" as="geometry" />
        </mxCell>
        <mxCell id="fMObdR9FiFRtV0M5q8pQ-41" value="" style="rounded=0;whiteSpace=wrap;html=1;" vertex="1" parent="1">
          <mxGeometry x="30" y="700" width="770" height="430" as="geometry" />
        </mxCell>
        <mxCell id="fMObdR9FiFRtV0M5q8pQ-43" value="Product Details Page or Modal" style="rounded=1;whiteSpace=wrap;html=1;" vertex="1" parent="1">
          <mxGeometry x="274" y="720" width="279" height="30" as="geometry" />
        </mxCell>
        <mxCell id="fMObdR9FiFRtV0M5q8pQ-44" value="" style="whiteSpace=wrap;html=1;aspect=fixed;" vertex="1" parent="1">
          <mxGeometry x="289" y="780" width="250" height="250" as="geometry" />
        </mxCell>
        <mxCell id="fMObdR9FiFRtV0M5q8pQ-45" value="" style="sketch=0;outlineConnect=0;fontColor=#232F3E;gradientColor=none;fillColor=#D45B07;strokeColor=none;dashed=0;verticalLabelPosition=bottom;verticalAlign=top;align=center;html=1;fontSize=12;fontStyle=0;aspect=fixed;pointerEvents=1;shape=mxgraph.aws4.container_registry_image;" vertex="1" parent="1">
          <mxGeometry x="360" y="800" width="110" height="110" as="geometry" />
        </mxCell>
        <mxCell id="fMObdR9FiFRtV0M5q8pQ-48" value="&lt;div style=&quot;&quot;&gt;&lt;span style=&quot;background-color: initial;&quot;&gt;Product Name&lt;/span&gt;&lt;/div&gt;&lt;div style=&quot;&quot;&gt;&lt;span style=&quot;background-color: initial;&quot;&gt;Description&lt;/span&gt;&lt;/div&gt;&lt;div style=&quot;&quot;&gt;&lt;span style=&quot;background-color: initial;&quot;&gt;Price&lt;/span&gt;&lt;/div&gt;" style="rounded=1;whiteSpace=wrap;html=1;align=left;" vertex="1" parent="1">
          <mxGeometry x="296" y="920" width="236" height="60" as="geometry" />
        </mxCell>
        <mxCell id="fMObdR9FiFRtV0M5q8pQ-49" value="Wishlist" style="rounded=1;whiteSpace=wrap;html=1;" vertex="1" parent="1">
          <mxGeometry x="300" y="990" width="90" height="30" as="geometry" />
        </mxCell>
        <mxCell id="fMObdR9FiFRtV0M5q8pQ-51" value="Add To Cart" style="rounded=1;whiteSpace=wrap;html=1;" vertex="1" parent="1">
          <mxGeometry x="440" y="990" width="90" height="30" as="geometry" />
        </mxCell>
      </root>
    </mxGraphModel>
  </diagram>
</mxfile>
